<svg xmlns="http://www.w3.org/2000/svg" fill="currentColor" class="bi bi-instagram" viewBox="0 0 16 16"><path d="M8 0C5.735 0 5.48.01 4.65.048 3.837.084 3.317.204 2.9.366a3.8 3.8 0 0 0-1.38.901A3.8 3.8 0 0 0 .366 2.9C.204 3.317.084 3.837.048 4.65.01 5.48 0 5.735 0 8c0 2.265.01 2.52.048 3.35.036.813.156 1.333.318 1.75.162.417.378.788.73 1.14.352.352.723.568 1.14.73.417.162.937.282 1.75.318.83.038 1.085.048 3.35.048s2.52-.01 3.35-.048c.813-.036 1.333-.156 1.75-.318a3.8 3.8 0 0 0 1.14-.73 3.8 3.8 0 0 0 .73-1.14c.162-.417.282-.937.318-1.75.038-.83.048-1.085.048-3.35s-.01-2.52-.048-3.35c-.036-.813-.156-1.333-.318-1.75a3.8 3.8 0 0 0-.73-1.14 3.8 3.8 0 0 0-1.14-.73c-.417-.162-.937-.282-1.75-.318C10.52.01 10.265 0 8 0zm0 1.439c2.204 0 2.462.008 3.328.048.782.036 1.207.167 1.488.278.375.145.64.318.92.598.28.28.453.545.598.92.111.281.242.706.278 1.488.04.866.048 1.124.048 3.328s-.008 2.462-.048 3.328c-.036.782-.167 1.207-.278 1.488a2.364 2.364 0 0 1-.598.92 2.364 2.364 0 0 1-.92.598c-.281.111-.706.242-1.488.278-.866.04-1.124.048-3.328.048s-2.462-.008-3.328-.048c-.782-.036-1.207-.167-1.488-.278a2.364 2.364 0 0 1-.92-.598 2.364 2.364 0 0 1-.598-.92c-.111-.281-.242-.706-.278-1.488C1.447 10.462 1.439 10.204 1.439 8s.008-2.462.048-3.328c.036-.782.167-1.207.278-1.488.145-.375.318-.64.598-.92.28-.28.545-.453.92-.598.281-.111.706-.242 1.488-.278.866-.04 1.124-.048 3.328-.048zM8 3.838A4.162 4.162 0 0 0 3.838 8 4.162 4.162 0 0 0 8 12.162 4.162 4.162 0 0 0 12.162 8 4.162 4.162 0 0 0 8 3.838zM8 10.676A2.676 2.676 0 1 1 10.676 8 2.679 2.679 0 0 1 8 10.676zM12.406 3.594a.96.96 0 1 1-1.92 0 .96.96 0 0 1 1.92 0z"/></svg>