<svg xmlns="http://www.w3.org/2000/svg" fill="currentColor" class="bi bi-twitter" viewBox="0 0 16 16"><path d="M5.026 15c6.038 0 9.341-5.003 9.341-9.334 0-.14 0-.282-.009-.422A6.676 6.676 0 0 0 16 3.542a6.565 6.565 0 0 1-1.889.518 3.301 3.301 0 0 0 1.447-1.817 6.533 6.533 0 0 1-2.084.797A3.286 3.286 0 0 0 7.875 6.03a9.325 9.325 0 0 1-6.766-3.429 3.289 3.289 0 0 0 1.017 4.381A3.323 3.323 0 0 1 .64 6.575v.045a3.288 3.288 0 0 0 2.632 3.218 3.203 3.203 0 0 1-.865.115c-.212 0-.417-.02-.616-.057a3.283 3.283 0 0 0 3.067 2.277A6.588 6.588 0 0 1 .78 13.58a6.32 6.32 0 0 1-.78-.045A9.344 9.344 0 0 0 5.026 15z"/></svg>